# xmcd
#
# Track frame offsets:
# 150
# 21808
# 34574
# 45189
# 56019
# 76509
# 85552
# 98472
# 111046
# 123758
# 134079
# 147286
# 159313
# 174785
# 187577
# 202217
#
# Disc length: 2921 seconds
#
#
# Revision: 0
# Processed by: cddbd v1.5.2PL0 Copyright (c) Steve Scherf et al.
# Submitted via: FreeRIP 2.941 
#
DISCID=b30b6710
DTITLE=Jonny Hill - On the Road again
DYEAR=2007
DGENRE=Country
TTITLE0=Ruf Teddybaer Eins-Vier
TTITLE1=Kann Liebe alles verzeihn
TTITLE2=Koenig der Landstrasse
TTITLE3=Adios Amigos
TTITLE4=Der Feigling
TTITLE5=Ein Ring aus Feuer
TTITLE6=Es sind nur Erinnerungen
TTITLE7=Fuenfhundert Meilen von zu Haus
TTITLE8=Green Green Gras of Home
TTITLE9=Heute Nacht da brauch ich Dich
TTITLE10=Ich hab Dich heute Nacht so sehr vermisst
TTITLE11=Ja die Tuer steht immer offen
TTITLE12=Lucille
TTITLE13=Mein bester Freund
TTITLE14=Nur noch einmal nach Haus
TTITLE15=Rosen fuer Mama
EXTD=
EXTT0=
EXTT1=
EXTT2=
EXTT3=
EXTT4=
EXTT5=
EXTT6=
EXTT7=
EXTT8=
EXTT9=
EXTT10=
EXTT11=
EXTT12=
EXTT13=
EXTT14=
EXTT15=
PLAYORDER=
